<?xml version="1.0"?>
<svg xmlns="http://www.w3.org/2000/svg" width="512" height="512" viewBox="0 0 512 512"><g><path d="M104,336a24,24,0,1,0,24,24A24.028,24.028,0,0,0,104,336Zm0,32a8,8,0,1,1,8-8A8.009,8.009,0,0,1,104,368Z"/><path d="M408,336a24,24,0,1,0,24,24A24.028,24.028,0,0,0,408,336Zm0,32a8,8,0,1,1,8-8A8.009,8.009,0,0,1,408,368Z"/><path d="M502.73,227.67l-72-112A8,8,0,0,0,424,112H320a8,8,0,0,0-8,8V240H264V224h32a8,8,0,0,0,8-8V184a8,8,0,0,0-8-8H264V160h32a8,8,0,0,0,8-8V120a8,8,0,0,0-8-8H264v-8a8,8,0,0,0-16,0v8H168v-8a8,8,0,0,0-16,0v8H72v-8a8,8,0,0,0-16,0v8H24a8,8,0,0,0-8,8v32a8,8,0,0,0,8,8H56v16H24a8,8,0,0,0-8,8v32a8,8,0,0,0,8,8H56v16H16a8,8,0,0,0-8,8V360a8,8,0,0,0,8,8H48.58a55.994,55.994,0,0,0,110.84,0H352.58a55.994,55.994,0,0,0,110.84,0H496a8,8,0,0,0,8-8V232A8.018,8.018,0,0,0,502.73,227.67ZM32,144V128H288v16Zm216,16v16H168V160Zm-96,0v16H72V160ZM32,208V192H288v16Zm216,16v16H168V224Zm-96,0v16H72V224ZM104,400a40,40,0,1,1,40-40A40.04,40.04,0,0,1,104,400Zm208-48H159.42a55.994,55.994,0,0,0-110.84,0H24V256H312ZM435.06,152l46.29,72H368V152ZM408,400a40,40,0,1,1,40-40A40.04,40.04,0,0,1,408,400Zm80-112H472a8,8,0,0,1,0-16h16Zm0-32H472a24,24,0,0,0,0,48h16v48H463.42a55.994,55.994,0,0,0-110.84,0H328V128h91.63l5.15,8H360a8,8,0,0,0-8,8v88a8,8,0,0,0,8,8H488Z"/><path d="M384,248H360a8,8,0,0,0,0,16h24a8,8,0,0,0,0-16Z"/><path d="M136,296h64a8,8,0,0,0,0-16H136a8,8,0,0,0,0,16Z"/><path d="M200,304H176a8,8,0,0,0,0,16h24a8,8,0,0,0,0-16Z"/></g></svg>
