<?xml version="1.0" encoding="iso-8859-1"?>
<!-- Generator: Adobe Illustrator 21.0.0, SVG Export Plug-In . SVG Version: 6.00 Build 0)  -->
<svg version="1.1" id="Capa_1" xmlns="http://www.w3.org/2000/svg" xmlns:xlink="http://www.w3.org/1999/xlink" x="0px" y="0px"
	 viewBox="0 0 512.1 512.1" style="enable-background:new 0 0 512.1 512.1;" xml:space="preserve">
<g>
	<g>
		<path d="M503.6,305.009h-18.2l-24.5-179.8v-33.5c0-4.7-3.8-8.5-8.5-8.5h-51.2c-4.7,0-8.5,3.8-8.5,8.5v33.6l-24.7,179.7h-9.6
			v-102.4c0-3.1-1.7-5.9-4.3-7.4c-2.7-1.5-6-1.5-8.6,0.1l-72.4,43.4v-36.1c0-3.1-1.7-5.9-4.3-7.4c-2.7-1.5-6-1.5-8.6,0.1l-72.4,43.4
			v-36.1c0-3.1-1.7-5.9-4.3-7.4c-2.7-1.5-6-1.5-8.6,0.1l-42.7,25.6c-3.9,2.5-5.2,7.6-2.8,11.6c2.4,4,7.5,5.3,11.6,3l29.7-17.8v27.6
			h-68.3v-42.7c0-3.1-1.7-5.9-4.3-7.4c-2.7-1.5-6-1.5-8.6,0.1l-85.4,51.2c-0.3,0.2-0.5,0.4-0.7,0.7c-0.5,0.3-0.9,0.7-1.3,1.2
			c-0.3,0.4-0.6,0.9-0.9,1.3c-0.3,0.5-0.5,0.9-0.7,1.4c-0.2,0.6-0.3,1.1-0.3,1.7c-0.1,0.3-0.2,0.7-0.2,1v238.9c0,4.5,1.8,8.9,5,12.1
			c3.2,3.2,7.5,5,12.1,5H495c9.4,0,17.1-7.6,17.1-17.1v-179.2C512.1,308.809,508.3,305.009,503.6,305.009z M409.6,100.209h34.1v17.1
			h-34.1V100.209z M408.5,134.309h36.3l23.3,170.7h-82.8L408.5,134.309z M358.4,364.709h34.1c4.7,0,8.5-3.8,8.5-8.5
			s-3.8-8.5-8.5-8.5h-34.1v-25.6h136.5v136.5h-34.1v-42.7c0-9.4-7.6-17.1-17.1-17.1h-34.1c-9.4,0-17.1,7.6-17.1,17.1v42.7h-34.1
			V364.709z M443.7,415.909v42.7h-34.1v-42.7H443.7z M341.3,217.709v27.6h-46L341.3,217.709z M256,217.709v27.6h-46L256,217.709z
			 M85.3,217.709v27.6h-46L85.3,217.709z M17.1,305.009h59.7c4.7,0,8.5-3.8,8.5-8.5s-3.8-8.5-8.5-8.5H17.1v-25.6h324.2v196.2h-17.1
			v-119.5c0-9.4-7.6-17.1-17.1-17.1h-68.3c-9.4,0-17.1,7.6-17.1,17.1v119.5H17.1V305.009z M281.6,424.509h-42.7v-17.1h42.7
			c4.7,0,8.5-3.8,8.5-8.5s-3.8-8.5-8.5-8.5h-42.7v-17.1h42.7c4.7,0,8.5-3.8,8.5-8.5s-3.8-8.5-8.5-8.5h-42.7v-17.1h68.3v119.5h-68.3
			v-17.2h42.7c4.7,0,8.5-3.8,8.5-8.5S286.3,424.509,281.6,424.509z M495,492.709h-0.1H17.1v-17.1H495V492.709z"/>
	</g>
</g>
<g>
	<g>
		<path d="M204.8,288.009h-93.9c-4.7,0-8.5,3.8-8.5,8.5s3.8,8.5,8.5,8.5h93.9c4.7,0,8.5-3.8,8.5-8.5S209.5,288.009,204.8,288.009z"
			/>
	</g>
</g>
<g>
	<g>
		<path d="M93.9,347.609H51.2c-9.4,0.1-17.1,7.7-17.1,17.1v34.1c0,9.4,7.6,17.1,17.1,17.1h42.7c9.4,0,17.1-7.6,17.1-17.1v-34.1
			C111,355.309,103.4,347.609,93.9,347.609z M93.9,398.909H51.2v-34.1h42.7V398.909z"/>
	</g>
</g>
<g>
	<g>
		<path d="M187.7,347.709H145c-9.4,0-17.1,7.6-17.1,17.1v34.1c0,9.4,7.6,17.1,17.1,17.1h42.7c9.4,0,17.1-7.6,17.1-17.1v-34.1
			C204.8,355.309,197.2,347.709,187.7,347.709z M187.8,398.909h-42.7v-34.1h42.7V398.909z"/>
	</g>
</g>
<g>
	<g>
		<path d="M469.4,347.709h-42.7c-4.7,0-8.5,3.8-8.5,8.5s3.8,8.5,8.5,8.5h42.7c4.7,0,8.5-3.8,8.5-8.5S474.1,347.709,469.4,347.709z"
			/>
	</g>
</g>
<g>
	<g>
		<path d="M423.7,16.609c-17.6-13.4-40.6-17.7-61.9-11.6c-7.7,1.7-15.3,4.4-22.3,8c-19.2-10.3-41.6-13.2-62.8-8
			c-8.2,1.6-16.3,4.1-24,7.5c-0.7,0.4-1.4,0.8-2,1.4c-15.8-4-32.5-1.6-46.5,6.6c-20.6,13.7-29.8,39.3-22.5,62.9
			c5,14.9,17.2,26.2,32.3,30.2c2.3,12.6,14.3,44.9,73,46.1c3.3,3.2,6.9,6,10.7,8.4c1.9,1.3,3.9,2.5,6,3.6
			c14.2,6.8,30.6,7.4,45.2,1.5c2.1-0.9,3.7-2.6,4.6-4.7c0.8-2.1,0.8-4.5-0.1-6.5l-0.1-0.2c-1.9-4.2-6.8-6.1-11.1-4.3
			c-3,1.2-6.1,2-9.2,2.4c-41,0-42.6-30.6-42.7-34.2c0-4.7-3.8-8.5-8.6-8.5c-4.7,0-8.5,3.8-8.5,8.6c0.1,5.5,1.1,11,3,16.3
			c-29.3-3.2-39.8-16.2-43.6-25c1.3,0.1,2.6,0.2,3.9,0.2c4.7,0,8.5-3.8,8.5-8.5c0-4.7-3.8-8.5-8.5-8.5c-14.6,0-33.5-5.7-38.5-21.8
			c-4.9-16.3,1.3-33.8,15.4-43.4c11.7-6.5,25.7-7.7,38.3-3.1c6.1,2,12,4.6,17.6,7.6c4.1,2.1,9.2,0.5,11.4-3.6
			c2.2-4.1,0.7-9.2-3.4-11.5c-0.9-0.5-1.6-0.8-2.5-1.2c1.8-0.5,3.5-1,5.3-1.3c12.9-2.6,37-4.8,54.3,8.3c9.1,6.4,14.8,16.6,15.6,27.7
			c0.1,4.6,3.9,8.3,8.5,8.3h0.2c2.3-0.1,4.4-1,6-2.7c1.6-1.6,2.4-3.8,2.3-6.1c-0.6-11.8-5.2-23.1-13.1-32c3.7-1.4,7.6-2.6,11.5-3.5
			c11.2-2.5,32.3-4.7,47.3,8c8.4,6.9,13.5,17,14,27.9c0.1,4.6,3.9,8.3,8.5,8.3h0.2c2.3-0.1,4.4-1,6-2.6c1.6-1.6,2.4-3.8,2.3-6.1
			C443.1,41.409,435.8,26.709,423.7,16.609z"/>
	</g>
</g>
<g>
</g>
<g>
</g>
<g>
</g>
<g>
</g>
<g>
</g>
<g>
</g>
<g>
</g>
<g>
</g>
<g>
</g>
<g>
</g>
<g>
</g>
<g>
</g>
<g>
</g>
<g>
</g>
<g>
</g>
</svg>
